:SAMPLES-PER-SECOND 30
:FULLY-SPECIFIED
:DEGREES
303
root  2.59798 19.0837 2.55032 -120.768 1.84227 177.407
RightUpLeg  -51.7461 -2.29119 12.2961
RightLeg  101.443 18.3683 -10.3012
RightFoot  -7.84365 0.138345 -2.52423
RightToes  -5.82073e-011 -3.18055e-015 -2.98177e-016
Spine  38.8035 -0.0428305 3.31628
Spine1  -14.7495 0.912986 -13.0951
HEad  -24.4548 -16.2071 -3.88034
LeftShoulder1  -3.88251e-019 9.70628e-020 -3.87848e-018
LeftArm  -0.510403 -22.3327 -75.0984
LeftForeArm  28.7818 -6.60175 -9.30752
LeftHand  -12.804 -11.7166 76.0488
RightShoulder  3.62386 8.60888 17.318
RightArm  -25.4445 23.9454 51.8076
RightForeArm  -8.18229 22.0248 -11.9448
RightHand  -5.36572 4.85151 -55.619
LeftUpLeg  -66.409 3.0032 -5.19555
LeftLeg  123.438 -23.8389 14.5728
LeftFoot  -37.241 -1.5551 -6.82154
LeftToes  -2.27483e-011 -5.53417e-011 9.36564e-012
304
root  2.76526 19.0525 2.00121 -120.926 3.35292 177.099
RightUpLeg  -49.9543 -1.94406 11.1334
RightLeg  99.5036 18.2978 -11.3736
RightFoot  -8.2416 0.0927495 -1.64374
RightToes  -5.82073e-011 -3.18055e-015 -2.98177e-016
Spine  37.9899 0.168098 3.18366
Spine1  -11.4404 1.58282 -14.9205
HEad  -24.2498 -16.388 -3.61102
LeftShoulder1  -3.88251e-019 9.70628e-020 -3.87848e-018
LeftArm  0.502615 -23.7365 -74.7675
LeftForeArm  28.0746 -6.60546 -9.4226
LeftHand  -12.9141 -11.7419 76.444
RightShoulder  2.47762 7.17003 12.0134
RightArm  -27.4183 24.7175 54.5381
RightForeArm  -5.78327 19.0879 -12.23
RightHand  -5.06772 3.72921 -58.3744
LeftUpLeg  -69.5264 2.65335 -5.88461
LeftLeg  125.821 -22.4245 11.844
LeftFoot  -39.2996 -1.48201 -5.74933
LeftToes  -2.27483e-011 -5.53417e-011 9.36564e-012
305
root  2.92627 18.9967 1.41676 -121.229 5.02919 177.572
RightUpLeg  -47.7871 -0.873706 10.2372
RightLeg  97.4473 18.0947 -12.245
RightFoot  -8.29557 0.0857853 -1.48581
RightToes  -5.82073e-011 -3.18055e-015 -2.98177e-016
Spine  36.2886 0.299061 2.34379
Spine1  -7.48293 2.12087 -16.0948
HEad  -23.0351 -14.9592 -2.63144
LeftShoulder1  -3.88251e-019 9.70628e-020 -3.87848e-018
LeftArm  0.572799 -24.8465 -72.9627
LeftForeArm  27.8926 -6.25807 -8.88921
LeftHand  -13.2377 -12.0293 76.8784
RightShoulder  1.43044 5.4795 6.73282
RightArm  -30.295 23.0651 58.5112
RightForeArm  -3.49936 19.5814 -12.382
RightHand  -5.39412 3.89009 -60.611
LeftUpLeg  -71.9517 3.41302 -5.96642
LeftLeg  127.852 -19.0008 7.13595
LeftFoot  -42.8238 -3.19423 -11.5982
LeftToes  -2.27483e-011 -5.53417e-011 9.36564e-012
306
root  3.06299 18.9772 0.836167 -122.362 6.65727 178.867
RightUpLeg  -44.686 0.819053 9.7395
RightLeg  95.2449 17.8074 -13.129
RightFoot  -8.15173 0.0476813 -0.604371
RightToes  -5.82073e-011 -3.18055e-015 -2.98177e-016
Spine  35.6102 0.383773 1.26943
Spine1  -4.89678 2.41664 -16.6532
HEad  -20.4545 -12.543 -1.77357
LeftShoulder1  -3.88251e-019 9.70628e-020 -3.87848e-018
LeftArm  -0.781141 -24.1923 -70.2535
LeftForeArm  28.4961 -5.8148 -7.9513
LeftHand  -13.613 -12.3196 77.5033
RightShoulder  1.02256 4.77008 4.29361
RightArm  -28.0087 22.1758 61.6614
RightForeArm  -7.15748 20.5286 -11.8976
RightHand  -6.14252 4.8354 -62.3231
LeftUpLeg  -72.7902 5.2219 -5.81986
LeftLeg  127.89 -17.0199 4.79082
LeftFoot  -41.0806 -3.92597 -15.2604
LeftToes  -2.27483e-011 -5.53417e-011 9.36564e-012
307
root  3.15479 19.0253 0.274566 -124.438 8.20105 -179.834
RightUpLeg  -40.7393 2.36352 9.18125
RightLeg  93.0185 17.4589 -14.0188
RightFoot  -7.83943 -0.024186 0.93945
RightToes  -5.82073e-011 -3.18055e-015 -2.98177e-016
Spine  36.4544 0.579504 0.394261
Spine1  -3.51539 2.71089 -16.6252
HEad  -18.3251 -10.3497 -1.20781
LeftShoulder1  -3.88251e-019 9.70628e-020 -3.87848e-018
LeftArm  -2.41872 -22.5057 -68.0297
LeftForeArm  28.5725 -5.43524 -7.38056
LeftHand  -13.8231 -12.3447 78.288
RightShoulder  0.960511 4.68616 3.85551
RightArm  -20.5871 23.226 64.0332
RightForeArm  -13.7403 19.0733 -11.7227
RightHand  -6.71668 5.45332 -63.9235
LeftUpLeg  -71.3344 6.95543 -5.71221
LeftLeg  126.812 -16.6411 4.48665
LeftFoot  -33.7672 -3.31109 -17.4654
LeftToes  -2.27483e-011 -5.53417e-011 9.36564e-012
308
root  3.18657 18.98 -0.246993 -125.599 8.74982 -178.519
RightUpLeg  -37.7005 3.31593 9.52969
RightLeg  90.9153 17.0749 -14.9324
RightFoot  -7.48845 -0.0889336 2.1461
RightToes  -5.82073e-011 -3.18055e-015 -2.98177e-016
Spine  36.4822 0.453151 1.06344
Spine1  -2.55966 3.01345 -16.4766
HEad  -17.733 -8.35688 -0.422083
LeftShoulder1  -3.88251e-019 9.70628e-020 -3.87848e-018
LeftArm  -3.51634 -20.3845 -66.3489
LeftForeArm  27.6717 -4.9357 -7.48867
LeftHand  -13.8196 -12.0564 79.2239
RightShoulder  0.886369 4.50533 3.43932
RightArm  -14.4822 24.2637 67.3879
RightForeArm  -16.543 16.3142 -11.9758
RightHand  -7.01019 5.58713 -65.5083
LeftUpLeg  -69.4486 7.73892 -4.47443
LeftLeg  126.153 -16.3179 4.17093
LeftFoot  -26.255 -2.37997 -19.8441
LeftToes  -2.27483e-011 -5.53417e-011 9.36564e-012
309
root  3.16979 18.681 -0.705386 -123.393 7.12633 -176.024
RightUpLeg  -37.7339 4.26434 12.7345
RightLeg  88.7351 16.6635 -16.3436
RightFoot  -7.18971 -0.135363 2.9053
RightToes  -5.82073e-011 -3.18055e-015 -2.98177e-016
Spine  32.9032 -0.435397 4.86522
Spine1  -1.68119 3.46883 -17.1797
HEad  -17.9932 -6.04382 1.08697
LeftShoulder1  -3.88251e-019 9.70628e-020 -3.87848e-018
LeftArm  -4.42748 -17.8275 -65.0254
LeftForeArm  27.1937 -3.83326 -7.60102
LeftHand  -13.78 -11.6614 80.3905
RightShoulder  0.825101 4.42651 3.00492
RightArm  -12.2638 23.6681 71.2103
RightForeArm  -15.4879 14.78 -12.2314
RightHand  -7.40978 5.90696 -66.9191
LeftUpLeg  -70.2184 8.17126 -0.451285
LeftLeg  126.915 -14.8196 2.18188
LeftFoot  -24.8423 -2.63856 -24.5149
LeftToes  -2.27483e-011 -5.53417e-011 9.36564e-012
310
root  3.11489 18.4862 -1.22403 -121.202 7.94304 -175.708
RightUpLeg  -38.4304 4.49076 12.0374
RightLeg  87.0761 16.2571 -17.0844
RightFoot  -7.40002 -0.150774 3.32323
RightToes  -5.82073e-011 -3.18055e-015 -2.98177e-016
Spine  30.0841 -0.636516 5.20127
Spine1  -2.01732 3.11699 -16.9924
HEad  -18.139 -3.71189 2.86153
LeftShoulder1  -3.88251e-019 9.70628e-020 -3.87848e-018
LeftArm  -6.24112 -14.6219 -64.3943
LeftForeArm  28.1184 -2.32015 -7.29529
LeftHand  -13.9639 -11.5015 81.6959
RightShoulder  1.00896 4.94927 3.93708
RightArm  -10.1899 22.2552 73.4163
RightForeArm  -14.5809 14.8316 -11.8358
RightHand  -8.0627 6.61071 -68.2209
LeftUpLeg  -70.0183 7.91378 -1.08468
LeftLeg  125.63 -14.6467 2.03929
LeftFoot  -25.1719 -2.66305 -24.1561
LeftToes  -2.27483e-011 -5.53417e-011 9.36564e-012
311
root  3.05247 18.418 -1.81796 -119.376 8.73868 -177.303
RightUpLeg  -38.916 2.95107 10.0821
RightLeg  85.0402 15.6897 -17.5238
RightFoot  -7.94959 -0.130456 3.26284
RightToes  -5.82073e-011 -3.18055e-015 -2.98177e-016
Spine  28.1057 -1.14313 3.97372
Spine1  -2.67364 1.79205 -15.173
HEad  -18.53 -1.26438 4.59002
LeftShoulder1  -3.88251e-019 9.70628e-020 -3.87848e-018
LeftArm  -8.53593 -11.0509 -64.1974
LeftForeArm  28.827 -1.59279 -6.64343
LeftHand  -14.3125 -11.6835 82.4889
RightShoulder  1.23365 5.48606 5.12401
RightArm  -7.19955 21.2213 75.0743
RightForeArm  -14.0226 14.8692 -11.2209
RightHand  -8.64096 7.16835 -69.5238
LeftUpLeg  -69.9122 6.32237 -3.44465
LeftLeg  123.376 -14.6861 2.22445
LeftFoot  -25.4033 -2.66739 -23.7378
LeftToes  -2.27483e-011 -5.53417e-011 9.36564e-012
312
root  3.075 18.4498 -2.45854 -118.721 9.17264 179.784
RightUpLeg  -38.0534 0.230778 7.85348
RightLeg  82.587 14.9715 -17.5493
RightFoot  -8.73475 -0.0954748 3.03484
RightToes  -5.82073e-011 -3.18055e-015 -2.98177e-016
Spine  27.1752 -1.24101 0.809398
Spine1  -2.75049 0.134639 -10.1162
HEad  -19.2724 1.17843 6.38537
LeftShoulder1  -3.88251e-019 9.70628e-020 -3.87848e-018
LeftArm  -10.9975 -8.11318 -64.8208
LeftForeArm  29.3986 -1.52781 -5.91775
LeftHand  -14.3162 -11.8894 81.7975
RightShoulder  1.2458 5.53124 5.15926
RightArm  -5.57511 20.5659 76.8753
RightForeArm  -12.0411 14.5097 -11.0019
RightHand  -8.96179 7.37484 -70.6193
LeftUpLeg  -68.8434 3.92106 -5.99691
LeftLeg  120.692 -14.6902 2.41591
LeftFoot  -24.7321 -2.4813 -23.3526
LeftToes  -2.27483e-011 -5.53417e-011 9.36564e-012
